<?xml version="1.0" encoding="UTF-8" standalone="no"?>
<svg
   xmlns:dc="http://purl.org/dc/elements/1.1/"
   xmlns:cc="http://creativecommons.org/ns#"
   xmlns:rdf="http://www.w3.org/1999/02/22-rdf-syntax-ns#"
   xmlns:svg="http://www.w3.org/2000/svg"
   xmlns="http://www.w3.org/2000/svg"
   viewBox="0 0 1440 1440"
   height="1440"
   width="1440"
   xml:space="preserve"
   id="svg2"
   version="1.1"><metadata
     id="metadata8"><rdf:RDF><cc:Work
         rdf:about=""><dc:format>image/svg+xml</dc:format><dc:type
           rdf:resource="http://purl.org/dc/dcmitype/StillImage" /></cc:Work></rdf:RDF></metadata><defs
     id="defs6"><clipPath
       id="clipPath18"
       clipPathUnits="userSpaceOnUse"><path
         id="path16"
         d="M 0,1080 H 1080 V 0 H 0 Z" /></clipPath></defs><g
     transform="matrix(1.3333333,0,0,-1.3333333,0,1440)"
     id="g10"><g
       id="g12"><g
         clip-path="url(#clipPath18)"
         id="g14"><g
           transform="translate(304.7139,483.1846)"
           id="g20"><path
             id="path22"
             style="fill:#ea5b0c;fill-opacity:1;fill-rule:nonzero;stroke:none"
             d="m 0,0 c -0.27,-0.403 -0.805,-0.515 -1.218,-0.275 -23.177,13.973 -50.335,22.01 -79.373,22.01 -29.033,0 -56.196,-8.037 -79.372,-22.01 -0.408,-0.24 -0.943,-0.128 -1.213,0.275 -0.276,0.396 -0.185,0.937 0.191,1.229 l 0.11,0.089 c 20.953,16.15 39.168,36.583 53.216,60.919 14.048,24.331 22.631,50.304 26.147,76.519 0.069,0.455 0.45,0.805 0.921,0.805 0.471,0 0.858,-0.35 0.916,-0.805 3.522,-26.215 12.11,-52.188 26.153,-76.519 C -39.469,37.901 -21.26,17.468 -0.302,1.318 L -0.196,1.229 C 0.18,0.937 0.27,0.396 0,0 m -20.598,146.815 h -119.991 c -16.494,0 -29.996,-13.502 -29.996,-30.002 V -3.183 c 0,-16.504 13.502,-30.002 29.996,-30.002 h 119.991 c 16.499,0 30.002,13.498 30.002,30.002 v 119.996 c 0,16.5 -13.503,30.002 -30.002,30.002" /></g><g
           transform="translate(586.4736,503.918)"
           id="g24"><path
             id="path26"
             style="fill:#3c3c3b;fill-opacity:1;fill-rule:nonzero;stroke:none"
             d="M 0,0 H -22.017 V 25.194 H 0 c 8.403,0 13.158,-5.078 13.158,-12.671 C 13.158,5.052 8.403,0 0,0 m 3.648,48.169 h -25.665 v 18.369 h 47.693 c 4.755,0 6.497,1.742 6.497,6.502 v 9.992 c 0,4.919 -1.742,6.497 -6.497,6.497 h -67.009 c -4.755,0 -6.507,-1.578 -6.507,-6.497 v -99.833 c 0,-4.744 1.901,-6.174 6.317,-6.174 H 3.648 c 21.874,0 36.134,13.614 36.134,35.498 0,22.181 -14.26,35.646 -36.134,35.646 m -67.675,41.349 h -75.265 c -4.913,0 -6.48,-1.582 -6.48,-6.486 V 72.416 c 0,-4.756 1.567,-6.349 6.48,-6.349 h 24.882 v -82.561 c 0,-4.887 1.583,-6.481 6.323,-6.481 h 12.845 c 4.914,0 6.513,1.594 6.513,6.481 v 82.561 h 24.702 c 4.919,0 6.502,1.593 6.502,6.349 v 10.616 c 0,4.904 -1.583,6.486 -6.502,6.486 m -135.246,-70.821 8.249,24.701 c 3.807,11.269 3.733,19.301 3.733,19.301 h 1.409 c 0,0 0.397,-8.032 4.045,-19.459 l 8.239,-24.543 z m 27.269,65.738 c -1.43,4.136 -3.5,5.094 -7.937,5.094 h -12.19 c -4.458,0 -6.332,-0.958 -7.926,-5.39 l -37.881,-100.791 c -1.573,-4.269 -0.471,-6.323 4.299,-6.323 h 10.93 c 7.916,0 9.991,1.271 11.564,5.867 l 5.073,14.879 h 39.119 l 4.914,-14.879 c 1.446,-4.596 3.818,-5.867 11.728,-5.867 h 11.899 c 4.58,0 5.85,2.054 4.284,6.323 z" /></g><g
           transform="translate(711.1895,485.6094)"
           id="g28"><path
             id="path30"
             style="fill:#3c3c3b;fill-opacity:1;fill-rule:nonzero;stroke:none"
             d="m 0,0 c -1.498,0 -2.886,0.074 -4.125,0.111 v 11.511 c 1.615,0.191 3.225,0.229 4.348,0.229 5.03,0 7.465,-2.251 7.465,-5.741 C 7.688,2.213 5.1,0 0,0 m 0.302,13.799 c -1.091,0 -2.891,-0.074 -4.427,-0.223 v 8.885 H 8.287 V 24.41 H -6.185 V -1.838 c 1.537,0 3.559,-0.116 5.883,-0.116 6.228,0 10.05,2.78 10.05,8.176 0,4.654 -3.225,7.577 -9.446,7.577 M 44.537,7.651 h -10.95 v 7.387 H 31.638 V -1.838 h 1.949 v 7.651 h 10.95 v -7.651 h 1.948 v 16.876 h -1.948 z m 7.413,-9.489 h 1.948 V 15.038 H 51.95 Z M 24.432,2.441 c -0.943,-1.239 -2.325,-2.664 -5.179,-2.664 -2.102,0 -3.749,1.197 -3.749,3.299 0,2.473 2.325,3.522 4.538,3.522 1.727,0 3.15,-0.451 4.39,-1.351 z m -4.316,12.936 c -1.985,0 -3.786,-0.566 -5.364,-1.541 l 0.524,-1.609 c 1.504,0.82 2.738,1.312 4.729,1.312 4.199,0 4.427,-2.589 4.427,-6.602 -1.351,0.973 -3.231,1.276 -4.58,1.276 -3.638,0 -6.413,-1.875 -6.413,-5.253 0,-3.071 2.102,-5.02 5.215,-5.02 3.072,0 4.724,1.382 5.778,2.812 v -2.59 h 1.943 V 8.625 c 0,4.273 -1.573,6.752 -6.259,6.752 m 45.596,-0.339 h -2.51 l -8.176,-8.176 8.738,-8.7 H 66.39 L 57.388,6.974 Z M 23.431,40.316 H 25.38 V 57.192 H 23.431 L 12.179,43.128 V 57.192 H 10.23 V 40.316 h 1.949 l 11.252,14.059 z m 19.443,0 h 2.398 l -6.713,8.7 6.337,8.176 h -2.287 l -5.437,-6.979 -5.36,6.979 h -2.403 l 6.338,-8.25 -6.714,-8.626 h 2.293 l 5.772,7.461 z m 47.206,0 h 1.948 V 57.191 H 90.08 Z m -41.159,8.435 c 0,4.088 2.892,6.937 6.788,6.937 3.977,0 6.789,-2.886 6.789,-6.937 0,-4.087 -2.812,-6.937 -6.789,-6.937 -3.934,0 -6.788,2.886 -6.788,6.937 m 15.637,0 c 0,5.062 -3.596,8.78 -8.849,8.78 -5.247,0 -8.848,-3.718 -8.848,-8.78 0,-5.062 3.601,-8.773 8.848,-8.773 5.253,0 8.849,3.711 8.849,8.773 m 12.257,-6.937 c -3.934,0 -6.788,2.886 -6.788,6.937 0,4.088 2.891,6.937 6.788,6.937 3.977,0 6.789,-2.886 6.789,-6.937 0,-4.087 -2.812,-6.937 -6.789,-6.937 m 0,15.717 c -5.252,0 -8.847,-3.718 -8.847,-8.78 0,-5.062 3.595,-8.773 8.847,-8.773 5.248,0 8.854,3.711 8.854,8.773 0,5.062 -3.606,8.78 -8.854,8.78 M 181.006,40.316 h 1.949 v 16.875 h -1.949 z m 13.762,16.876 h -2.51 l -8.175,-8.176 8.736,-8.7 h 2.621 l -8.996,8.811 z M 171.057,41.814 c -3.94,0 -7.011,2.665 -7.011,6.937 0,4.014 3.071,6.937 6.635,6.937 1.948,0 3.828,-0.487 5.327,-1.837 l 0.937,1.577 c -1.615,1.536 -3.94,2.103 -6.566,2.103 -4.797,0 -8.398,-3.866 -8.398,-8.78 0,-5.321 3.712,-8.773 8.922,-8.773 2.478,0 4.951,0.937 6.375,2.737 l -0.968,1.425 c -1.165,-1.351 -3.077,-2.326 -5.253,-2.326 M -0.503,40.316 h 2.065 v 24.299 h 9.711 v 1.949 h -21.487 v -1.949 h 9.711 z m 227.872,20.852 c 3.034,0 5.1,2.06 5.1,4.797 h -1.764 c 0,-1.837 -1.35,-3.298 -3.336,-3.298 -2.101,0 -3.489,1.461 -3.489,3.298 h -1.763 c 0,-2.737 1.917,-4.797 5.252,-4.797 m 5.36,-3.976 -11.248,-14.064 v 14.064 h -1.954 V 40.316 h 1.954 l 11.248,14.059 V 40.316 h 1.953 V 57.192 Z M 200.868,43.128 v 14.064 h -1.954 V 40.316 h 1.954 l 11.246,14.059 V 40.316 h 1.954 v 16.876 h -1.954 z m -93.336,6.825 c 0.333,3.299 2.547,5.735 6.296,5.735 3.526,0 5.776,-2.171 5.851,-5.735 z m 6.487,7.578 c -5.549,0 -8.552,-3.866 -8.552,-8.78 0,-5.321 3.637,-8.773 8.965,-8.773 2.25,0 4.685,0.789 6.221,2.398 l -0.635,1.499 c -1.165,-1.197 -3.188,-2.061 -5.475,-2.061 -4.051,0 -6.751,2.473 -6.899,6.524 h 13.91 c 0.079,0.45 0.11,0.937 0.11,1.578 0,4.612 -3.298,7.615 -7.645,7.615 m 41.619,-7.726 h -10.951 v 7.387 h -1.954 V 40.316 h 1.954 v 7.652 h 10.951 v -7.652 h 1.948 v 16.876 h -1.948 z m -51.796,7.387 h -2.51 l -8.176,-8.176 8.737,-8.7 h 2.627 l -9.002,8.811 z M 135.527,44.59 c -0.937,-1.239 -2.325,-2.664 -5.173,-2.664 -2.102,0 -3.75,1.202 -3.75,3.304 0,2.473 2.326,3.521 4.534,3.521 1.725,0 3.15,-0.45 4.389,-1.35 z m -4.315,12.941 c -1.986,0 -3.786,-0.567 -5.359,-1.541 l 0.524,-1.615 c 1.499,0.826 2.737,1.313 4.724,1.313 4.204,0 4.426,-2.584 4.426,-6.597 -1.35,0.973 -3.224,1.275 -4.575,1.275 -3.638,0 -6.412,-1.874 -6.412,-5.253 0,-3.076 2.102,-5.024 5.21,-5.024 3.076,0 4.729,1.387 5.777,2.811 v -2.584 h 1.949 v 10.463 c 0,4.274 -1.573,6.752 -6.264,6.752 m -28.832,27.386 -0.98,1.424 c -1.159,-1.35 -3.076,-2.325 -5.247,-2.325 -3.939,0 -7.01,2.664 -7.01,6.937 0,4.014 3.071,6.937 6.634,6.937 1.949,0 3.824,-0.488 5.327,-1.838 l 0.937,1.578 c -1.615,1.536 -3.939,2.097 -6.565,2.097 -4.798,0 -8.399,-3.86 -8.399,-8.774 0,-5.327 3.712,-8.774 8.922,-8.774 2.479,0 4.957,0.937 6.381,2.738 m -36.933,1.874 c -0.937,-1.239 -2.325,-2.664 -5.178,-2.664 -2.097,0 -3.749,1.203 -3.749,3.299 0,2.478 2.324,3.527 4.538,3.527 1.725,0 3.15,-0.45 4.389,-1.35 z m -4.315,12.936 c -1.986,0 -3.786,-0.561 -5.364,-1.536 l 0.529,-1.615 c 1.499,0.826 2.738,1.314 4.724,1.314 4.199,0 4.426,-2.59 4.426,-6.603 -1.35,0.979 -3.224,1.281 -4.575,1.281 -3.638,0 -6.412,-1.875 -6.412,-5.253 0,-3.076 2.097,-5.025 5.21,-5.025 3.076,0 4.728,1.388 5.777,2.812 v -2.589 h 1.949 v 10.463 c 0,4.278 -1.573,6.751 -6.264,6.751 m 69.206,-15.711 c -3.94,0 -6.788,2.886 -6.788,6.937 0,4.088 2.886,6.937 6.788,6.937 3.972,0 6.788,-2.887 6.788,-6.937 0,-4.088 -2.816,-6.937 -6.788,-6.937 m 0,15.711 c -5.253,0 -8.848,-3.712 -8.848,-8.774 0,-5.062 3.595,-8.774 8.848,-8.774 5.247,0 8.848,3.712 8.848,8.774 0,5.062 -3.601,8.774 -8.848,8.774 M 76.874,82.513 h 1.953 v 14.926 h 6.709 v 1.949 H 70.165 v -1.949 h 6.709 z M 2.013,106.139 7.45,93.389 H -3.463 Z M -4.289,91.44 H 8.313 l 3.824,-8.927 H 14.35 L 2.912,108.988 H 1.224 L -10.214,82.513 h 2.102 z m 52.591,5.136 V 82.513 H 50.25 V 99.388 H 48.302 L 37.05,85.33 V 99.388 H 35.102 V 82.513 h 1.948 z m 72.235,-14.063 -8.997,8.816 8.324,8.059 h -2.515 l -8.175,-8.176 8.742,-8.699 z M 151.82,92.61 h -8.589 v -1.837 h 8.589 z m -43.769,6.778 h -1.948 V 82.513 h 1.948 z M 23.271,84.016 c -1.577,0 -3.902,0.599 -5.326,1.912 l -1.016,-1.499 c 1.128,-1.35 4.389,-2.25 6.639,-2.25 4.051,0 6.974,1.874 6.974,5.025 0,1.949 -1.239,3.749 -3.675,3.977 v 0.073 c 2.177,0.785 3.039,2.399 3.039,4.046 0,2.743 -2.138,4.427 -6.073,4.427 -2.515,0 -4.956,-0.784 -6.338,-2.208 l 0.783,-1.504 c 1.24,1.017 2.855,1.875 5.29,1.875 2.59,0 4.274,-1.012 4.274,-2.923 0,-1.727 -1.536,-3.077 -3.447,-3.077 h -2.664 v -1.615 h 2.849 c 2.399,0 3.902,-1.048 3.902,-2.812 0,-2.171 -2.139,-3.447 -5.211,-3.447 M -35.286,-24.357 h 1.948 v 151.873 h -1.948 z" /></g></g></g></g></svg>